<mxfile host="app.diagrams.net" modified="2022-07-19T20:45:27.633Z" agent="5.0 (X11; Linux x86_64) AppleWebKit/537.36 (KHTML, like Gecko) Chrome/103.0.5060.114 Safari/537.36" etag="Xh1_TWq2awuQmlaynpnG" version="20.1.1" type="github">
  <diagram id="qGAheUNxRPDMH_IXnLlU" name="Page-1">
    <mxGraphModel dx="1988" dy="578" grid="1" gridSize="10" guides="1" tooltips="1" connect="1" arrows="1" fold="1" page="1" pageScale="1" pageWidth="850" pageHeight="1100" math="0" shadow="0">
      <root>
        <mxCell id="0" />
        <mxCell id="1" parent="0" />
        <mxCell id="UYC_uGFk6W8lQJdfX-j8-10" value="" style="rounded=0;whiteSpace=wrap;html=1;" vertex="1" parent="1">
          <mxGeometry x="470" y="40" width="360" height="680" as="geometry" />
        </mxCell>
        <mxCell id="UYC_uGFk6W8lQJdfX-j8-11" value="" style="rounded=0;whiteSpace=wrap;html=1;" vertex="1" parent="1">
          <mxGeometry x="470" y="40" width="360" height="40" as="geometry" />
        </mxCell>
        <mxCell id="UYC_uGFk6W8lQJdfX-j8-12" value="Logo" style="ellipse;whiteSpace=wrap;html=1;aspect=fixed;" vertex="1" parent="1">
          <mxGeometry x="630" y="40" width="40" height="40" as="geometry" />
        </mxCell>
        <mxCell id="UYC_uGFk6W8lQJdfX-j8-16" value="" style="endArrow=none;html=1;rounded=0;" edge="1" parent="1">
          <mxGeometry width="50" height="50" relative="1" as="geometry">
            <mxPoint x="815" y="70" as="sourcePoint" />
            <mxPoint x="795" y="50" as="targetPoint" />
          </mxGeometry>
        </mxCell>
        <mxCell id="UYC_uGFk6W8lQJdfX-j8-17" value="" style="endArrow=none;html=1;rounded=0;" edge="1" parent="1">
          <mxGeometry width="50" height="50" relative="1" as="geometry">
            <mxPoint x="795" y="70" as="sourcePoint" />
            <mxPoint x="815" y="50" as="targetPoint" />
          </mxGeometry>
        </mxCell>
        <mxCell id="UYC_uGFk6W8lQJdfX-j8-19" value="&lt;span style=&quot;font-size: 9px;&quot;&gt;Image&lt;/span&gt;" style="ellipse;whiteSpace=wrap;html=1;aspect=fixed;" vertex="1" parent="1">
          <mxGeometry x="490.01" y="85" width="60" height="60" as="geometry" />
        </mxCell>
        <mxCell id="UYC_uGFk6W8lQJdfX-j8-20" value="&lt;h1 style=&quot;font-size: 12px;&quot;&gt;&lt;span style=&quot;font-size: 12px;&quot;&gt;Name&lt;/span&gt;&lt;/h1&gt;" style="text;html=1;strokeColor=none;fillColor=none;spacing=5;spacingTop=-21;whiteSpace=wrap;overflow=hidden;rounded=0;textDirection=ltr;fontSize=12;verticalAlign=middle;horizontal=1;" vertex="1" parent="1">
          <mxGeometry x="560" y="110" width="70" height="25" as="geometry" />
        </mxCell>
        <mxCell id="UYC_uGFk6W8lQJdfX-j8-50" value="" style="rounded=0;whiteSpace=wrap;html=1;fontSize=6;" vertex="1" parent="1">
          <mxGeometry x="470.01" y="155" width="360" height="35" as="geometry" />
        </mxCell>
        <mxCell id="UYC_uGFk6W8lQJdfX-j8-51" value="" style="rounded=0;whiteSpace=wrap;html=1;fontSize=6;" vertex="1" parent="1">
          <mxGeometry x="470" y="190" width="360" height="35" as="geometry" />
        </mxCell>
        <mxCell id="UYC_uGFk6W8lQJdfX-j8-52" value="" style="rounded=0;whiteSpace=wrap;html=1;fontSize=6;" vertex="1" parent="1">
          <mxGeometry x="470" y="225" width="360" height="35" as="geometry" />
        </mxCell>
        <mxCell id="UYC_uGFk6W8lQJdfX-j8-53" value="" style="rounded=0;whiteSpace=wrap;html=1;fontSize=6;" vertex="1" parent="1">
          <mxGeometry x="470" y="260" width="360" height="35" as="geometry" />
        </mxCell>
        <mxCell id="UYC_uGFk6W8lQJdfX-j8-54" value="&lt;font style=&quot;font-size: 12px;&quot;&gt;Option&lt;/font&gt;" style="text;html=1;strokeColor=none;fillColor=none;align=center;verticalAlign=middle;whiteSpace=wrap;rounded=0;fontSize=6;" vertex="1" parent="1">
          <mxGeometry x="512.51" y="157.5" width="60" height="30" as="geometry" />
        </mxCell>
        <mxCell id="UYC_uGFk6W8lQJdfX-j8-56" value="i" style="ellipse;whiteSpace=wrap;html=1;aspect=fixed;" vertex="1" parent="1">
          <mxGeometry x="490.01" y="161.25" width="22.5" height="22.5" as="geometry" />
        </mxCell>
        <mxCell id="UYC_uGFk6W8lQJdfX-j8-57" value="&lt;span style=&quot;font-size: 12px;&quot;&gt;Option&lt;/span&gt;" style="text;html=1;strokeColor=none;fillColor=none;align=center;verticalAlign=middle;whiteSpace=wrap;rounded=0;fontSize=6;" vertex="1" parent="1">
          <mxGeometry x="512.5" y="192.5" width="60" height="30" as="geometry" />
        </mxCell>
        <mxCell id="UYC_uGFk6W8lQJdfX-j8-58" value="i" style="ellipse;whiteSpace=wrap;html=1;aspect=fixed;" vertex="1" parent="1">
          <mxGeometry x="490" y="196.25" width="22.5" height="22.5" as="geometry" />
        </mxCell>
        <mxCell id="UYC_uGFk6W8lQJdfX-j8-59" value="&lt;span style=&quot;font-size: 12px;&quot;&gt;Option&lt;/span&gt;" style="text;html=1;strokeColor=none;fillColor=none;align=center;verticalAlign=middle;whiteSpace=wrap;rounded=0;fontSize=6;" vertex="1" parent="1">
          <mxGeometry x="512.5" y="227.5" width="60" height="30" as="geometry" />
        </mxCell>
        <mxCell id="UYC_uGFk6W8lQJdfX-j8-60" value="i" style="ellipse;whiteSpace=wrap;html=1;aspect=fixed;" vertex="1" parent="1">
          <mxGeometry x="490" y="231.25" width="22.5" height="22.5" as="geometry" />
        </mxCell>
        <mxCell id="UYC_uGFk6W8lQJdfX-j8-61" value="&lt;span style=&quot;font-size: 12px;&quot;&gt;Option&lt;/span&gt;" style="text;html=1;strokeColor=none;fillColor=none;align=center;verticalAlign=middle;whiteSpace=wrap;rounded=0;fontSize=6;" vertex="1" parent="1">
          <mxGeometry x="512.5" y="262.5" width="60" height="30" as="geometry" />
        </mxCell>
        <mxCell id="UYC_uGFk6W8lQJdfX-j8-62" value="i" style="ellipse;whiteSpace=wrap;html=1;aspect=fixed;" vertex="1" parent="1">
          <mxGeometry x="490" y="266.25" width="22.5" height="22.5" as="geometry" />
        </mxCell>
        <mxCell id="UYC_uGFk6W8lQJdfX-j8-78" value="" style="rounded=0;whiteSpace=wrap;html=1;" vertex="1" parent="1">
          <mxGeometry x="65" y="40" width="360" height="680" as="geometry" />
        </mxCell>
        <mxCell id="UYC_uGFk6W8lQJdfX-j8-79" value="" style="rounded=0;whiteSpace=wrap;html=1;" vertex="1" parent="1">
          <mxGeometry x="65" y="40" width="360" height="40" as="geometry" />
        </mxCell>
        <mxCell id="UYC_uGFk6W8lQJdfX-j8-80" value="Logo" style="ellipse;whiteSpace=wrap;html=1;aspect=fixed;" vertex="1" parent="1">
          <mxGeometry x="225" y="40" width="40" height="40" as="geometry" />
        </mxCell>
        <mxCell id="UYC_uGFk6W8lQJdfX-j8-81" value="" style="endArrow=none;html=1;rounded=0;" edge="1" parent="1">
          <mxGeometry width="50" height="50" relative="1" as="geometry">
            <mxPoint x="405" y="54.83000000000004" as="sourcePoint" />
            <mxPoint x="365" y="55" as="targetPoint" />
            <Array as="points">
              <mxPoint x="375" y="54.83" />
            </Array>
          </mxGeometry>
        </mxCell>
        <mxCell id="UYC_uGFk6W8lQJdfX-j8-82" value="" style="endArrow=none;html=1;rounded=0;" edge="1" parent="1">
          <mxGeometry width="50" height="50" relative="1" as="geometry">
            <mxPoint x="405" y="59.73000000000002" as="sourcePoint" />
            <mxPoint x="365" y="60" as="targetPoint" />
            <Array as="points">
              <mxPoint x="375" y="59.72999999999999" />
            </Array>
          </mxGeometry>
        </mxCell>
        <mxCell id="UYC_uGFk6W8lQJdfX-j8-83" value="" style="endArrow=none;html=1;rounded=0;" edge="1" parent="1">
          <mxGeometry width="50" height="50" relative="1" as="geometry">
            <mxPoint x="405" y="64.83000000000004" as="sourcePoint" />
            <mxPoint x="365" y="65" as="targetPoint" />
            <Array as="points">
              <mxPoint x="375" y="64.83" />
            </Array>
          </mxGeometry>
        </mxCell>
        <mxCell id="UYC_uGFk6W8lQJdfX-j8-85" value="" style="rounded=0;whiteSpace=wrap;html=1;fontSize=12;" vertex="1" parent="1">
          <mxGeometry x="93.5" y="222.5" width="300" height="257.5" as="geometry" />
        </mxCell>
        <mxCell id="UYC_uGFk6W8lQJdfX-j8-87" value="&lt;span style=&quot;font-size: 9px;&quot;&gt;Image&lt;/span&gt;" style="ellipse;whiteSpace=wrap;html=1;aspect=fixed;" vertex="1" parent="1">
          <mxGeometry x="93.5" y="150" width="40" height="40" as="geometry" />
        </mxCell>
        <mxCell id="UYC_uGFk6W8lQJdfX-j8-88" value="User name" style="text;html=1;strokeColor=none;fillColor=none;align=center;verticalAlign=middle;whiteSpace=wrap;rounded=0;fontSize=9;" vertex="1" parent="1">
          <mxGeometry x="133.5" y="155" width="56.5" height="30" as="geometry" />
        </mxCell>
        <mxCell id="UYC_uGFk6W8lQJdfX-j8-89" value="" style="verticalLabelPosition=bottom;verticalAlign=top;html=1;shape=mxgraph.basic.heart;fontSize=9;" vertex="1" parent="1">
          <mxGeometry x="102.66999999999996" y="445" width="15" height="15" as="geometry" />
        </mxCell>
        <mxCell id="UYC_uGFk6W8lQJdfX-j8-90" value="" style="whiteSpace=wrap;html=1;shape=mxgraph.basic.oval_callout;fontSize=9;" vertex="1" parent="1">
          <mxGeometry x="135.99" y="445" width="15" height="15" as="geometry" />
        </mxCell>
        <mxCell id="UYC_uGFk6W8lQJdfX-j8-91" value="&lt;font style=&quot;font-size: 6px;&quot;&gt;Number&lt;/font&gt;" style="text;html=1;strokeColor=none;fillColor=none;align=center;verticalAlign=middle;whiteSpace=wrap;rounded=0;fontSize=9;" vertex="1" parent="1">
          <mxGeometry x="93.5" y="455" width="33.33" height="20" as="geometry" />
        </mxCell>
        <mxCell id="UYC_uGFk6W8lQJdfX-j8-92" value="&lt;span style=&quot;font-size: 6px;&quot;&gt;Number&lt;/span&gt;" style="text;html=1;strokeColor=none;fillColor=none;align=center;verticalAlign=middle;whiteSpace=wrap;rounded=0;fontSize=9;" vertex="1" parent="1">
          <mxGeometry x="126.82999999999993" y="455" width="33.33" height="20" as="geometry" />
        </mxCell>
        <mxCell id="UYC_uGFk6W8lQJdfX-j8-93" value="&lt;h1&gt;&lt;span style=&quot;background-color: initial; font-weight: normal;&quot;&gt;&lt;font style=&quot;font-size: 9px;&quot;&gt;Description&lt;/font&gt;&lt;/span&gt;&lt;br&gt;&lt;/h1&gt;" style="text;html=1;strokeColor=none;fillColor=none;spacing=5;spacingTop=-20;whiteSpace=wrap;overflow=hidden;rounded=0;fontSize=6;" vertex="1" parent="1">
          <mxGeometry x="93.5" y="200" width="300" height="30" as="geometry" />
        </mxCell>
        <mxCell id="UYC_uGFk6W8lQJdfX-j8-95" value="" style="rounded=0;whiteSpace=wrap;html=1;fontSize=9;" vertex="1" parent="1">
          <mxGeometry x="93.5" y="222.5" width="300" height="217" as="geometry" />
        </mxCell>
        <mxCell id="UYC_uGFk6W8lQJdfX-j8-86" value="Image" style="text;html=1;strokeColor=none;fillColor=none;align=center;verticalAlign=middle;whiteSpace=wrap;rounded=0;fontSize=12;" vertex="1" parent="1">
          <mxGeometry x="213.5" y="305" width="60" height="30" as="geometry" />
        </mxCell>
        <mxCell id="UYC_uGFk6W8lQJdfX-j8-96" value="" style="rounded=0;whiteSpace=wrap;html=1;fontSize=12;" vertex="1" parent="1">
          <mxGeometry x="93.5" y="582.5" width="300" height="257.5" as="geometry" />
        </mxCell>
        <mxCell id="UYC_uGFk6W8lQJdfX-j8-97" value="&lt;span style=&quot;font-size: 9px;&quot;&gt;Image&lt;/span&gt;" style="ellipse;whiteSpace=wrap;html=1;aspect=fixed;" vertex="1" parent="1">
          <mxGeometry x="93.5" y="510" width="40" height="40" as="geometry" />
        </mxCell>
        <mxCell id="UYC_uGFk6W8lQJdfX-j8-98" value="User name" style="text;html=1;strokeColor=none;fillColor=none;align=center;verticalAlign=middle;whiteSpace=wrap;rounded=0;fontSize=9;" vertex="1" parent="1">
          <mxGeometry x="133.5" y="515" width="56.5" height="30" as="geometry" />
        </mxCell>
        <mxCell id="UYC_uGFk6W8lQJdfX-j8-99" value="" style="verticalLabelPosition=bottom;verticalAlign=top;html=1;shape=mxgraph.basic.heart;fontSize=9;" vertex="1" parent="1">
          <mxGeometry x="102.66999999999996" y="805" width="15" height="15" as="geometry" />
        </mxCell>
        <mxCell id="UYC_uGFk6W8lQJdfX-j8-100" value="" style="whiteSpace=wrap;html=1;shape=mxgraph.basic.oval_callout;fontSize=9;" vertex="1" parent="1">
          <mxGeometry x="135.99" y="805" width="15" height="15" as="geometry" />
        </mxCell>
        <mxCell id="UYC_uGFk6W8lQJdfX-j8-101" value="&lt;span style=&quot;font-size: 6px;&quot;&gt;Number&lt;/span&gt;" style="text;html=1;strokeColor=none;fillColor=none;align=center;verticalAlign=middle;whiteSpace=wrap;rounded=0;fontSize=9;" vertex="1" parent="1">
          <mxGeometry x="93.5" y="815" width="33.33" height="20" as="geometry" />
        </mxCell>
        <mxCell id="UYC_uGFk6W8lQJdfX-j8-102" value="&lt;span style=&quot;font-size: 6px;&quot;&gt;Number&lt;/span&gt;" style="text;html=1;strokeColor=none;fillColor=none;align=center;verticalAlign=middle;whiteSpace=wrap;rounded=0;fontSize=9;" vertex="1" parent="1">
          <mxGeometry x="126.82999999999993" y="815" width="33.33" height="20" as="geometry" />
        </mxCell>
        <mxCell id="UYC_uGFk6W8lQJdfX-j8-103" value="&lt;h1&gt;&lt;span style=&quot;background-color: initial; font-weight: normal;&quot;&gt;&lt;font style=&quot;font-size: 9px;&quot;&gt;Description&lt;/font&gt;&lt;/span&gt;&lt;/h1&gt;" style="text;html=1;strokeColor=none;fillColor=none;spacing=5;spacingTop=-20;whiteSpace=wrap;overflow=hidden;rounded=0;fontSize=6;" vertex="1" parent="1">
          <mxGeometry x="93.5" y="560" width="300" height="30" as="geometry" />
        </mxCell>
        <mxCell id="UYC_uGFk6W8lQJdfX-j8-104" value="" style="rounded=0;whiteSpace=wrap;html=1;fontSize=9;" vertex="1" parent="1">
          <mxGeometry x="93.5" y="582.5" width="300" height="217" as="geometry" />
        </mxCell>
        <mxCell id="UYC_uGFk6W8lQJdfX-j8-105" value="Image" style="text;html=1;strokeColor=none;fillColor=none;align=center;verticalAlign=middle;whiteSpace=wrap;rounded=0;fontSize=12;" vertex="1" parent="1">
          <mxGeometry x="213.5" y="665" width="60" height="30" as="geometry" />
        </mxCell>
        <mxCell id="UYC_uGFk6W8lQJdfX-j8-107" value="" style="rounded=0;whiteSpace=wrap;html=1;fontSize=6;" vertex="1" parent="1">
          <mxGeometry x="470" y="685" width="360" height="35" as="geometry" />
        </mxCell>
        <mxCell id="UYC_uGFk6W8lQJdfX-j8-108" value="&lt;h1 style=&quot;font-size: 12px;&quot;&gt;Log out&lt;/h1&gt;" style="text;html=1;strokeColor=none;fillColor=none;spacing=5;spacingTop=-21;whiteSpace=wrap;overflow=hidden;rounded=0;textDirection=ltr;fontSize=12;verticalAlign=middle;horizontal=1;" vertex="1" parent="1">
          <mxGeometry x="605.63" y="700" width="88.75" height="20" as="geometry" />
        </mxCell>
        <mxCell id="UYC_uGFk6W8lQJdfX-j8-109" value="New entry" style="rounded=1;whiteSpace=wrap;html=1;fontSize=9;" vertex="1" parent="1">
          <mxGeometry x="121.83" y="90" width="218.17" height="30" as="geometry" />
        </mxCell>
        <mxCell id="UYC_uGFk6W8lQJdfX-j8-110" value="&lt;font style=&quot;font-size: 9px;&quot;&gt;Image&lt;/font&gt;" style="ellipse;whiteSpace=wrap;html=1;aspect=fixed;" vertex="1" parent="1">
          <mxGeometry x="72.67" y="85" width="40" height="40" as="geometry" />
        </mxCell>
        <mxCell id="UYC_uGFk6W8lQJdfX-j8-112" value="button" style="rounded=0;whiteSpace=wrap;html=1;fontSize=9;" vertex="1" parent="1">
          <mxGeometry x="350" y="92.5" width="63.5" height="25" as="geometry" />
        </mxCell>
        <mxCell id="UYC_uGFk6W8lQJdfX-j8-113" value="" style="endArrow=classic;html=1;rounded=0;fontSize=9;exitX=1;exitY=0.5;exitDx=0;exitDy=0;entryX=0;entryY=0.5;entryDx=0;entryDy=0;" edge="1" parent="1" source="UYC_uGFk6W8lQJdfX-j8-79" target="UYC_uGFk6W8lQJdfX-j8-11">
          <mxGeometry width="50" height="50" relative="1" as="geometry">
            <mxPoint x="450" y="40" as="sourcePoint" />
            <mxPoint x="500" y="-10" as="targetPoint" />
          </mxGeometry>
        </mxCell>
        <mxCell id="UYC_uGFk6W8lQJdfX-j8-168" value="" style="rounded=0;whiteSpace=wrap;html=1;" vertex="1" parent="1">
          <mxGeometry x="-340" y="40" width="360" height="680" as="geometry" />
        </mxCell>
        <mxCell id="UYC_uGFk6W8lQJdfX-j8-169" value="" style="rounded=0;whiteSpace=wrap;html=1;" vertex="1" parent="1">
          <mxGeometry x="-340" y="40" width="360" height="40" as="geometry" />
        </mxCell>
        <mxCell id="UYC_uGFk6W8lQJdfX-j8-170" value="Logo" style="ellipse;whiteSpace=wrap;html=1;aspect=fixed;" vertex="1" parent="1">
          <mxGeometry x="-180" y="40" width="40" height="40" as="geometry" />
        </mxCell>
        <mxCell id="UYC_uGFk6W8lQJdfX-j8-171" value="" style="endArrow=none;html=1;rounded=0;" edge="1" parent="1">
          <mxGeometry width="50" height="50" relative="1" as="geometry">
            <mxPoint y="54.82999999999993" as="sourcePoint" />
            <mxPoint x="-40" y="55" as="targetPoint" />
            <Array as="points">
              <mxPoint x="-30" y="54.83" />
            </Array>
          </mxGeometry>
        </mxCell>
        <mxCell id="UYC_uGFk6W8lQJdfX-j8-172" value="" style="endArrow=none;html=1;rounded=0;" edge="1" parent="1">
          <mxGeometry width="50" height="50" relative="1" as="geometry">
            <mxPoint y="59.73000000000002" as="sourcePoint" />
            <mxPoint x="-40" y="60" as="targetPoint" />
            <Array as="points">
              <mxPoint x="-30" y="59.72999999999999" />
            </Array>
          </mxGeometry>
        </mxCell>
        <mxCell id="UYC_uGFk6W8lQJdfX-j8-173" value="" style="endArrow=none;html=1;rounded=0;" edge="1" parent="1">
          <mxGeometry width="50" height="50" relative="1" as="geometry">
            <mxPoint y="64.82999999999993" as="sourcePoint" />
            <mxPoint x="-40" y="65" as="targetPoint" />
            <Array as="points">
              <mxPoint x="-30" y="64.83" />
            </Array>
          </mxGeometry>
        </mxCell>
        <mxCell id="UYC_uGFk6W8lQJdfX-j8-174" value="" style="rounded=0;whiteSpace=wrap;html=1;fontSize=12;" vertex="1" parent="1">
          <mxGeometry x="-340" y="222.5" width="360" height="257.5" as="geometry" />
        </mxCell>
        <mxCell id="UYC_uGFk6W8lQJdfX-j8-175" value="&lt;span style=&quot;font-size: 9px;&quot;&gt;Image&lt;/span&gt;" style="ellipse;whiteSpace=wrap;html=1;aspect=fixed;" vertex="1" parent="1">
          <mxGeometry x="-332.33" y="140" width="40" height="40" as="geometry" />
        </mxCell>
        <mxCell id="UYC_uGFk6W8lQJdfX-j8-176" value="User name" style="text;html=1;strokeColor=none;fillColor=none;align=center;verticalAlign=middle;whiteSpace=wrap;rounded=0;fontSize=9;" vertex="1" parent="1">
          <mxGeometry x="-289.76" y="145" width="56.5" height="30" as="geometry" />
        </mxCell>
        <mxCell id="UYC_uGFk6W8lQJdfX-j8-177" value="" style="verticalLabelPosition=bottom;verticalAlign=top;html=1;shape=mxgraph.basic.heart;fontSize=9;" vertex="1" parent="1">
          <mxGeometry x="-326.49000000000007" y="445" width="15" height="15" as="geometry" />
        </mxCell>
        <mxCell id="UYC_uGFk6W8lQJdfX-j8-178" value="" style="whiteSpace=wrap;html=1;shape=mxgraph.basic.oval_callout;fontSize=9;" vertex="1" parent="1">
          <mxGeometry x="-293.17" y="445" width="15" height="15" as="geometry" />
        </mxCell>
        <mxCell id="UYC_uGFk6W8lQJdfX-j8-179" value="&lt;font style=&quot;font-size: 6px;&quot;&gt;Number&lt;/font&gt;" style="text;html=1;strokeColor=none;fillColor=none;align=center;verticalAlign=middle;whiteSpace=wrap;rounded=0;fontSize=9;" vertex="1" parent="1">
          <mxGeometry x="-335.66" y="455" width="33.33" height="20" as="geometry" />
        </mxCell>
        <mxCell id="UYC_uGFk6W8lQJdfX-j8-180" value="&lt;span style=&quot;font-size: 6px;&quot;&gt;Number&lt;/span&gt;" style="text;html=1;strokeColor=none;fillColor=none;align=center;verticalAlign=middle;whiteSpace=wrap;rounded=0;fontSize=9;" vertex="1" parent="1">
          <mxGeometry x="-302.3300000000001" y="455" width="33.33" height="20" as="geometry" />
        </mxCell>
        <mxCell id="UYC_uGFk6W8lQJdfX-j8-181" value="&lt;h1&gt;&lt;span style=&quot;background-color: initial; font-weight: normal;&quot;&gt;&lt;font style=&quot;font-size: 9px;&quot;&gt;Description&lt;/font&gt;&lt;/span&gt;&lt;br&gt;&lt;/h1&gt;" style="text;html=1;strokeColor=none;fillColor=none;spacing=5;spacingTop=-20;whiteSpace=wrap;overflow=hidden;rounded=0;fontSize=6;" vertex="1" parent="1">
          <mxGeometry x="-340" y="190" width="360" height="30" as="geometry" />
        </mxCell>
        <mxCell id="UYC_uGFk6W8lQJdfX-j8-182" value="" style="rounded=0;whiteSpace=wrap;html=1;fontSize=9;" vertex="1" parent="1">
          <mxGeometry x="-340" y="222.5" width="360" height="217" as="geometry" />
        </mxCell>
        <mxCell id="UYC_uGFk6W8lQJdfX-j8-183" value="Image" style="text;html=1;strokeColor=none;fillColor=none;align=center;verticalAlign=middle;whiteSpace=wrap;rounded=0;fontSize=12;" vertex="1" parent="1">
          <mxGeometry x="-191.5" y="305" width="60" height="30" as="geometry" />
        </mxCell>
        <mxCell id="UYC_uGFk6W8lQJdfX-j8-193" value="New entry" style="rounded=1;whiteSpace=wrap;html=1;fontSize=9;" vertex="1" parent="1">
          <mxGeometry x="-283.17" y="90" width="218.17" height="30" as="geometry" />
        </mxCell>
        <mxCell id="UYC_uGFk6W8lQJdfX-j8-194" value="&lt;font style=&quot;font-size: 9px;&quot;&gt;Image&lt;/font&gt;" style="ellipse;whiteSpace=wrap;html=1;aspect=fixed;" vertex="1" parent="1">
          <mxGeometry x="-332.33" y="85" width="40" height="40" as="geometry" />
        </mxCell>
        <mxCell id="UYC_uGFk6W8lQJdfX-j8-195" value="button" style="rounded=0;whiteSpace=wrap;html=1;fontSize=9;" vertex="1" parent="1">
          <mxGeometry x="-55" y="92.5" width="63.5" height="25" as="geometry" />
        </mxCell>
        <mxCell id="UYC_uGFk6W8lQJdfX-j8-198" value="" style="endArrow=none;html=1;rounded=0;fontSize=9;" edge="1" parent="1">
          <mxGeometry width="50" height="50" relative="1" as="geometry">
            <mxPoint x="-341.5" y="130" as="sourcePoint" />
            <mxPoint x="20" y="130" as="targetPoint" />
          </mxGeometry>
        </mxCell>
        <mxCell id="UYC_uGFk6W8lQJdfX-j8-199" value="" style="rounded=0;whiteSpace=wrap;html=1;fontSize=12;" vertex="1" parent="1">
          <mxGeometry x="-340" y="592.5" width="360" height="257.5" as="geometry" />
        </mxCell>
        <mxCell id="UYC_uGFk6W8lQJdfX-j8-200" value="&lt;span style=&quot;font-size: 9px;&quot;&gt;Image&lt;/span&gt;" style="ellipse;whiteSpace=wrap;html=1;aspect=fixed;" vertex="1" parent="1">
          <mxGeometry x="-332.33" y="510" width="40" height="40" as="geometry" />
        </mxCell>
        <mxCell id="UYC_uGFk6W8lQJdfX-j8-201" value="User name" style="text;html=1;strokeColor=none;fillColor=none;align=center;verticalAlign=middle;whiteSpace=wrap;rounded=0;fontSize=9;" vertex="1" parent="1">
          <mxGeometry x="-289.76" y="515" width="56.5" height="30" as="geometry" />
        </mxCell>
        <mxCell id="UYC_uGFk6W8lQJdfX-j8-202" value="" style="verticalLabelPosition=bottom;verticalAlign=top;html=1;shape=mxgraph.basic.heart;fontSize=9;" vertex="1" parent="1">
          <mxGeometry x="-326.49000000000007" y="815" width="15" height="15" as="geometry" />
        </mxCell>
        <mxCell id="UYC_uGFk6W8lQJdfX-j8-203" value="" style="whiteSpace=wrap;html=1;shape=mxgraph.basic.oval_callout;fontSize=9;" vertex="1" parent="1">
          <mxGeometry x="-293.17" y="815" width="15" height="15" as="geometry" />
        </mxCell>
        <mxCell id="UYC_uGFk6W8lQJdfX-j8-204" value="&lt;font style=&quot;font-size: 6px;&quot;&gt;Number&lt;/font&gt;" style="text;html=1;strokeColor=none;fillColor=none;align=center;verticalAlign=middle;whiteSpace=wrap;rounded=0;fontSize=9;" vertex="1" parent="1">
          <mxGeometry x="-335.66" y="825" width="33.33" height="20" as="geometry" />
        </mxCell>
        <mxCell id="UYC_uGFk6W8lQJdfX-j8-205" value="&lt;span style=&quot;font-size: 6px;&quot;&gt;Number&lt;/span&gt;" style="text;html=1;strokeColor=none;fillColor=none;align=center;verticalAlign=middle;whiteSpace=wrap;rounded=0;fontSize=9;" vertex="1" parent="1">
          <mxGeometry x="-302.3300000000001" y="825" width="33.33" height="20" as="geometry" />
        </mxCell>
        <mxCell id="UYC_uGFk6W8lQJdfX-j8-206" value="&lt;h1&gt;&lt;span style=&quot;background-color: initial; font-weight: normal;&quot;&gt;&lt;font style=&quot;font-size: 9px;&quot;&gt;Description&lt;/font&gt;&lt;/span&gt;&lt;br&gt;&lt;/h1&gt;" style="text;html=1;strokeColor=none;fillColor=none;spacing=5;spacingTop=-20;whiteSpace=wrap;overflow=hidden;rounded=0;fontSize=6;" vertex="1" parent="1">
          <mxGeometry x="-340" y="560" width="360" height="30" as="geometry" />
        </mxCell>
        <mxCell id="UYC_uGFk6W8lQJdfX-j8-207" value="" style="rounded=0;whiteSpace=wrap;html=1;fontSize=9;" vertex="1" parent="1">
          <mxGeometry x="-340" y="592.5" width="360" height="217" as="geometry" />
        </mxCell>
        <mxCell id="UYC_uGFk6W8lQJdfX-j8-208" value="Image" style="text;html=1;strokeColor=none;fillColor=none;align=center;verticalAlign=middle;whiteSpace=wrap;rounded=0;fontSize=12;" vertex="1" parent="1">
          <mxGeometry x="-191.5" y="675" width="60" height="30" as="geometry" />
        </mxCell>
        <mxCell id="UYC_uGFk6W8lQJdfX-j8-244" value="" style="rounded=0;whiteSpace=wrap;html=1;" vertex="1" parent="1">
          <mxGeometry x="890" y="40" width="360" height="680" as="geometry" />
        </mxCell>
        <mxCell id="UYC_uGFk6W8lQJdfX-j8-245" value="" style="rounded=0;whiteSpace=wrap;html=1;" vertex="1" parent="1">
          <mxGeometry x="890" y="40" width="360" height="40" as="geometry" />
        </mxCell>
        <mxCell id="UYC_uGFk6W8lQJdfX-j8-246" value="Logo" style="ellipse;whiteSpace=wrap;html=1;aspect=fixed;" vertex="1" parent="1">
          <mxGeometry x="1050" y="40" width="40" height="40" as="geometry" />
        </mxCell>
        <mxCell id="UYC_uGFk6W8lQJdfX-j8-247" value="" style="endArrow=none;html=1;rounded=0;" edge="1" parent="1">
          <mxGeometry width="50" height="50" relative="1" as="geometry">
            <mxPoint x="1230" y="54.82999999999993" as="sourcePoint" />
            <mxPoint x="1190" y="55" as="targetPoint" />
            <Array as="points">
              <mxPoint x="1200" y="54.829999999999984" />
            </Array>
          </mxGeometry>
        </mxCell>
        <mxCell id="UYC_uGFk6W8lQJdfX-j8-248" value="" style="endArrow=none;html=1;rounded=0;" edge="1" parent="1">
          <mxGeometry width="50" height="50" relative="1" as="geometry">
            <mxPoint x="1230" y="59.73000000000002" as="sourcePoint" />
            <mxPoint x="1190" y="60" as="targetPoint" />
            <Array as="points">
              <mxPoint x="1200" y="59.72999999999999" />
            </Array>
          </mxGeometry>
        </mxCell>
        <mxCell id="UYC_uGFk6W8lQJdfX-j8-249" value="" style="endArrow=none;html=1;rounded=0;" edge="1" parent="1">
          <mxGeometry width="50" height="50" relative="1" as="geometry">
            <mxPoint x="1230" y="64.82999999999993" as="sourcePoint" />
            <mxPoint x="1190" y="65" as="targetPoint" />
            <Array as="points">
              <mxPoint x="1200" y="64.82999999999998" />
            </Array>
          </mxGeometry>
        </mxCell>
        <mxCell id="UYC_uGFk6W8lQJdfX-j8-273" value="" style="endArrow=classic;html=1;rounded=0;fontSize=9;exitX=1;exitY=0.5;exitDx=0;exitDy=0;" edge="1" parent="1">
          <mxGeometry width="50" height="50" relative="1" as="geometry">
            <mxPoint x="605.63" y="120" as="sourcePoint" />
            <mxPoint x="890" y="120" as="targetPoint" />
          </mxGeometry>
        </mxCell>
        <mxCell id="UYC_uGFk6W8lQJdfX-j8-274" value="&lt;font style=&quot;font-size: 12px;&quot;&gt;Image&lt;/font&gt;" style="ellipse;whiteSpace=wrap;html=1;aspect=fixed;" vertex="1" parent="1">
          <mxGeometry x="910" y="92.5" width="97.5" height="97.5" as="geometry" />
        </mxCell>
        <mxCell id="UYC_uGFk6W8lQJdfX-j8-280" value="&lt;h1&gt;&lt;font style=&quot;font-size: 18px;&quot;&gt;User name&lt;/font&gt;&lt;/h1&gt;&lt;p&gt;&lt;font style=&quot;font-size: 14px;&quot;&gt;User description&lt;/font&gt;&lt;/p&gt;" style="text;html=1;strokeColor=none;fillColor=none;spacing=5;spacingTop=-20;whiteSpace=wrap;overflow=hidden;rounded=0;fontSize=9;" vertex="1" parent="1">
          <mxGeometry x="1020" y="115" width="190" height="60" as="geometry" />
        </mxCell>
        <mxCell id="UYC_uGFk6W8lQJdfX-j8-281" value="Api information" style="rounded=1;whiteSpace=wrap;html=1;fontSize=14;" vertex="1" parent="1">
          <mxGeometry x="900" y="315" width="340" height="75" as="geometry" />
        </mxCell>
        <mxCell id="UYC_uGFk6W8lQJdfX-j8-289" value="" style="rounded=1;whiteSpace=wrap;html=1;fontSize=14;" vertex="1" parent="1">
          <mxGeometry x="900" y="225" width="340" height="75" as="geometry" />
        </mxCell>
        <mxCell id="UYC_uGFk6W8lQJdfX-j8-290" value="Handicap" style="text;html=1;strokeColor=none;fillColor=none;align=center;verticalAlign=middle;whiteSpace=wrap;rounded=0;fontSize=14;" vertex="1" parent="1">
          <mxGeometry x="920" y="248.75" width="60" height="30" as="geometry" />
        </mxCell>
        <mxCell id="UYC_uGFk6W8lQJdfX-j8-292" value="Games won" style="text;html=1;strokeColor=none;fillColor=none;align=center;verticalAlign=middle;whiteSpace=wrap;rounded=0;fontSize=14;" vertex="1" parent="1">
          <mxGeometry x="1030" y="248.75" width="80" height="30" as="geometry" />
        </mxCell>
        <mxCell id="UYC_uGFk6W8lQJdfX-j8-293" value="More" style="text;html=1;strokeColor=none;fillColor=none;align=center;verticalAlign=middle;whiteSpace=wrap;rounded=0;fontSize=14;" vertex="1" parent="1">
          <mxGeometry x="1140" y="246.25" width="80" height="30" as="geometry" />
        </mxCell>
      </root>
    </mxGraphModel>
  </diagram>
</mxfile>
